<?xml version="1.0" encoding="UTF-8"?>
<svg id="Capa_2" data-name="Capa 2" xmlns="http://www.w3.org/2000/svg" viewBox="0 0 24 23.82">
  <defs>
    <style>
      .cls-1 {
        fill: #fff;
        stroke-width: 0px;
      }
    </style>
  </defs>
  <g id="Capa_1-2" data-name="Capa 1">
    <path class="cls-1" d="m13.89,23.82v-8.34h2.78c.18-1.17.35-2.31.53-3.48h-3.27s-.05-.05-.05-.06c0-.83-.03-1.67.03-2.5.07-.94.7-1.51,1.65-1.55.58-.02,1.16,0,1.76,0v-2.97c-1.07-.16-2.15-.31-3.25-.2-.42.04-.86.13-1.26.27-1.57.57-2.41,1.75-2.6,3.36-.12,1.07-.07,2.17-.09,3.26,0,.12,0,.24,0,.38h-3.03v3.48h3.01v8.33C6.05,23.38.59,19.61.04,12.91-.5,6.32,4.55.48,11.17.03c6.63-.45,12.43,4.62,12.8,11.2.39,6.93-4.81,11.89-10.09,12.6Z"/>
  </g>
</svg>