<?xml version="1.0" encoding="UTF-8"?>
<svg id="Capa_2" data-name="Capa 2" xmlns="http://www.w3.org/2000/svg" viewBox="0 0 24 24">
  <defs>
    <style>
      .cls-1 {
        fill: #fff;
        stroke-width: 0px;
      }
    </style>
  </defs>
  <g id="Capa_1-2" data-name="Capa 1">
    <g>
      <path class="cls-1" d="m11.9,0c6.51-.05,11.87,5.12,12.09,11.59.23,6.67-5.04,12.18-11.58,12.41C5.74,24.22.23,18.96,0,12.41-.22,5.65,5.2.06,11.9,0Zm.09,19.84c1.07,0,2.13,0,3.2,0,.14,0,.27,0,.41-.01,1.17-.09,2.16-.55,2.97-1.41.82-.87,1.22-1.91,1.22-3.11,0-2.18,0-4.36,0-6.54,0-.25-.02-.5-.06-.74-.34-2.16-2.23-3.77-4.42-3.77-2.21,0-4.42,0-6.63,0-.36,0-.72.05-1.07.14-2.02.52-3.39,2.3-3.39,4.38s0,4.37,0,6.55c0,.52.09,1.02.26,1.51.64,1.79,2.33,2.98,4.23,2.98h3.29Z"/>
      <path class="cls-1" d="m12,18.44c-1.11,0-2.22,0-3.33,0-.77,0-1.46-.25-2.03-.77-.65-.59-.98-1.33-.98-2.2,0-2.25,0-4.5,0-6.74,0-1.6,1.26-2.91,2.85-2.97.08,0,.15,0,.23,0,2.2,0,4.41,0,6.61,0,1.17,0,2.05.54,2.64,1.56.25.43.36.91.36,1.4,0,2.25,0,4.51,0,6.76,0,1.5-1.14,2.78-2.64,2.94-.13.01-.26.02-.4.02-1.1,0-2.21,0-3.31,0Zm4.04-6.34c0-2.23-1.8-4.05-4.01-4.05-2.25,0-4.07,1.79-4.07,4.02,0,2.25,1.8,4.06,4.04,4.06,2.23,0,4.04-1.81,4.04-4.03Zm.14-5.14c-.53,0-.94.41-.95.94,0,.52.42.94.94.95.52,0,.95-.42.95-.94,0-.52-.42-.94-.94-.95Z"/>
      <path class="cls-1" d="m12,9.48c1.44,0,2.62,1.18,2.62,2.62,0,1.44-1.17,2.6-2.62,2.61-1.44,0-2.63-1.19-2.62-2.62,0-1.45,1.18-2.61,2.62-2.61Z"/>
    </g>
  </g>
</svg>