<?xml version="1.0" encoding="UTF-8"?>
<svg id="Capa_2" data-name="Capa 2" xmlns="http://www.w3.org/2000/svg" viewBox="0 0 19.6 16.79">
  <defs>
    <style>
      .cls-1 {
        fill: #fff;
        stroke-width: 0px;
      }
    </style>
  </defs>
  <g id="Capa_1-2" data-name="Capa 1">
    <g>
      <path class="cls-1" d="m9.82,16.79c-2.61,0-5.22,0-7.82,0-.95,0-1.72-.61-1.93-1.53-.22-.93.21-1.91,1.05-2.3.26-.12.57-.2.85-.2,5.23-.01,10.46-.01,15.69,0,1.02,0,1.86.8,1.94,1.81.08,1.12-.6,2.05-1.65,2.21-.14.02-.28.02-.41.02-2.57,0-5.14,0-7.7,0Z"/>
      <path class="cls-1" d="m9.8,4.04c-2.59,0-5.18,0-7.76,0-1.03,0-1.8-.63-1.99-1.63C-.21,1.14.72,0,2.02,0c2.09,0,4.17,0,6.26,0,3.1,0,6.19,0,9.29,0,.88,0,1.58.47,1.89,1.25.31.79.11,1.7-.5,2.28-.33.31-.73.5-1.19.51-.71,0-1.43,0-2.14,0-1.94,0-3.88,0-5.82,0Z"/>
      <path class="cls-1" d="m9.78,10.41c-2.59,0-5.19,0-7.78,0-1.01,0-1.79-.67-1.96-1.68-.17-.95.38-1.92,1.27-2.24.21-.08.45-.11.68-.11,5.22,0,10.43,0,15.65,0,1.02,0,1.86.77,1.95,1.77.11,1.11-.56,2.05-1.59,2.24-.15.03-.3.03-.45.03-2.59,0-5.18,0-7.76,0Z"/>
    </g>
  </g>
</svg>