<?xml version="1.0" encoding="UTF-8"?>
<svg id="Capa_2" data-name="Capa 2" xmlns="http://www.w3.org/2000/svg" viewBox="0 0 24 24">
  <defs>
    <style>
      .cls-1 {
        fill: #fff;
        stroke-width: 0px;
      }
    </style>
  </defs>
  <g id="Capa_1-2" data-name="Capa 1">
    <g>
      <path class="cls-1" d="m11.25,0c.5,0,1,0,1.5,0,.06.01.12.03.18.04,1.87.14,3.62.68,5.21,1.66,3.1,1.91,5.01,4.65,5.67,8.24.08.44.12.88.18,1.32v1.5c-.02.15-.04.31-.06.46-.26,2.37-1.12,4.5-2.63,6.35-1.88,2.3-4.29,3.72-7.22,4.25-.44.08-.89.12-1.34.19h-1.5c-.29-.04-.59-.07-.88-.11-2.21-.31-4.2-1.16-5.93-2.58-2.29-1.89-3.72-4.29-4.25-7.22C.11,13.65.06,13.2,0,12.75c0-.5,0-1,0-1.5.02-.15.04-.31.06-.46.28-2.54,1.24-4.79,2.93-6.71C4.86,1.98,7.18.67,9.96.18c.43-.07.86-.12,1.29-.18Zm.8,17.3s0-.04,0-.05c.16,0,.33,0,.49,0,1.65-.08,3.29-.13,4.93-.24.96-.07,1.58-.64,1.74-1.58.14-.81.21-1.64.25-2.47.08-1.41.03-2.83-.21-4.23-.18-1.04-.78-1.62-1.83-1.74-.71-.08-1.41-.14-2.12-.17-2.83-.12-5.65-.12-8.47.12-1.33.11-1.95.69-2.14,2.01-.18,1.3-.25,2.61-.17,3.93.05.87.12,1.75.27,2.6.14.82.69,1.3,1.5,1.48.23.05.46.09.7.1,1.68.08,3.37.16,5.05.24Z"/>
      <path class="cls-1" d="m14.41,12c-1.32.76-2.59,1.49-3.89,2.24v-4.48c1.3.75,2.57,1.48,3.89,2.24Z"/>
    </g>
  </g>
</svg>